<svg width="14" height="14" viewBox="0 0 14 14" fill="none" xmlns="http://www.w3.org/2000/svg">
<g clip-path="url(#clip0_340_2)">
<path fill-rule="evenodd" clip-rule="evenodd" d="M2.36012 1.36C2.43012 1.29 2.52612 1.25 2.62512 1.25H7.00012C7.16588 1.25 7.32486 1.18415 7.44207 1.06694C7.55928 0.949731 7.62512 0.79076 7.62512 0.625C7.62512 0.45924 7.55928 0.300269 7.44207 0.183058C7.32486 0.065848 7.16588 0 7.00012 0L2.62512 0C2.19415 0 1.78082 0.171205 1.47608 0.475951C1.17133 0.780698 1.00012 1.19402 1.00012 1.625V10.274L0.0321243 13.177C-0.00333898 13.2833 -0.00957148 13.3972 0.0140793 13.5067C0.0377301 13.6162 0.0903943 13.7174 0.166558 13.7996C0.242721 13.8818 0.339582 13.942 0.446999 13.9739C0.554415 14.0058 0.668437 14.0083 0.777124 13.981L4.70212 13H12.3751C12.5885 13 12.7998 12.958 12.997 12.8763C13.1941 12.7946 13.3733 12.6749 13.5242 12.524C13.6751 12.3732 13.7948 12.194 13.8764 11.9969C13.9581 11.7997 14.0001 11.5884 14.0001 11.375V7C14.0001 6.83424 13.9343 6.67527 13.8171 6.55806C13.6999 6.44085 13.5409 6.375 13.3751 6.375C13.2094 6.375 13.0504 6.44085 12.9332 6.55806C12.816 6.67527 12.7501 6.83424 12.7501 7V11.375C12.7501 11.4745 12.7106 11.5698 12.6403 11.6402C12.57 11.7105 12.4746 11.75 12.3751 11.75H4.62512C4.57385 11.7498 4.52277 11.7562 4.47312 11.769L1.57812 12.493L2.21812 10.573C2.23982 10.5093 2.25064 10.4423 2.25012 10.375V1.625C2.25012 1.525 2.29012 1.43 2.36012 1.36ZM10.7261 0.246C11.0013 0.131449 11.3043 0.101471 11.5966 0.15989C11.8889 0.21831 12.1571 0.362478 12.3671 0.574H12.3681L13.4251 1.632C13.5656 1.77143 13.678 1.93727 13.7541 2.11996C13.8302 2.30266 13.8693 2.4986 13.8693 2.6965C13.8693 2.8944 13.8302 3.09034 13.7541 3.27304C13.678 3.45573 13.5666 3.62157 13.4261 3.761L8.71612 8.49C8.64405 8.5623 8.55158 8.61081 8.45112 8.629L5.45112 9.169C5.37237 9.18318 5.29135 9.17825 5.2149 9.15462C5.13844 9.13099 5.06877 9.08935 5.01175 9.03321C4.95472 8.97706 4.912 8.90805 4.88719 8.83197C4.86237 8.75589 4.85617 8.67497 4.86912 8.596L5.36912 5.556C5.38583 5.45222 5.43482 5.35635 5.50912 5.282L10.2401 0.573C10.3791 0.43312 10.5442 0.322002 10.7261 0.246Z" fill="black"/>
</g>
<defs>
<clipPath id="clip0_340_2">
<rect width="14" height="14" fill="white"/>
</clipPath>
</defs>
</svg>
